<svg xmlns="http://www.w3.org/2000/svg" width="19" height="18" viewBox="0 0 19 18">
    <path fill="#172B4D" fill-rule="nonzero" d="M6.814.017a.97.97 0 0 1 .97.97V6.83a.97.97 0 0 1-.97.97H.97A.97.97 0 0 1 0 6.83V.987a.97.97 0 0 1 .97-.97h5.844zm-.976 1.945H1.946v3.892h3.892V1.962zM0 10.716a.97.97 0 0 1 .97-.97h5.844a.97.97 0 0 1 .97.97v5.844a.97.97 0 0 1-.97.97H.97a.97.97 0 0 1-.97-.97v-5.844zm1.946.976v3.892h3.892v-3.892H1.946zM15.586.974v13.238l1.087-1.088A.973.973 0 1 1 18.05 14.5l-2.746 2.746a.97.97 0 0 1-.69.287.96.96 0 0 1-.689-.284L11.175 14.5a.973.973 0 1 1 1.376-1.376l1.088 1.088V.974c0-.538.432-.974.973-.974.538 0 .973.433.973.974z"/>
</svg>
